<svg width="100" height="148" viewBox="0 0 100 178" fill="none" xmlns="http://www.w3.org/2000/svg">
<path fill-rule="evenodd" clip-rule="evenodd" d="M100 150H78.125V50.625H81.25V140.625H84.375V50.625H87.5V140.625H90.625V50.625H93.75V140.625H96.875V50.625H100V150ZM96.875 146.875V143.75H93.75V146.875H96.875ZM90.625 143.75H87.5V146.875H90.625V143.75ZM84.375 143.75H81.25V146.875H84.375V143.75Z" fill="#0075FF"/>
<path d="M78.125 50C78.125 34.467 65.533 21.875 50 21.875C34.6223 21.875 22.1271 34.2164 21.8788 49.5349L21.875 50V100C21.875 115.533 34.467 128.125 50 128.125C65.3777 128.125 77.8729 115.784 78.1212 100.465L78.125 100V98.125H100V101.25L99.9847 101.251C99.3208 128.287 77.196 150 50 150C22.804 150 0.679228 128.287 0.0153446 101.251L0 101.25V48.75L0.0153255 48.7497C0.678883 21.7132 22.8037 0 50 0C77.1963 0 99.3211 21.7132 99.9847 48.7497L100 48.75V51.875H78.125V50ZM96.8586 101.251L93.7325 101.251C93.0705 124.835 73.7442 143.75 50 143.75C26.2558 143.75 6.92954 124.835 6.26753 101.251L3.14136 101.251C3.80431 126.561 24.5298 146.875 50 146.875C75.4702 146.875 96.1958 126.561 96.8586 101.251ZM12.5205 101.25L9.39388 101.251C10.0548 123.109 27.9818 140.625 50 140.625C72.0182 140.625 89.9452 123.109 90.6061 101.251L87.4796 101.25C86.82 121.382 70.2923 137.5 50 137.5C29.7077 137.5 13.18 121.382 12.5205 101.25ZM18.7746 101.251L15.6473 101.251C16.3055 119.656 31.4338 134.375 50 134.375C68.5662 134.375 83.6945 119.656 84.3527 101.251L81.2254 101.251C80.569 117.93 66.8401 131.25 50 131.25C33.1599 131.25 19.431 117.93 18.7746 101.251ZM6.25 51.875H3.125V98.125H6.25V51.875ZM12.5 51.875H9.375V98.125H12.5V51.875ZM18.75 51.875H15.625V98.125H18.75V51.875ZM50 3.125C24.5296 3.125 3.80389 23.4395 3.14134 48.7501L6.26752 48.75C6.92921 25.1656 26.2556 6.25 50 6.25C73.7444 6.25 93.0708 25.1656 93.7325 48.75L96.8587 48.7499C96.196 23.4394 75.4704 3.125 50 3.125ZM50 9.375C27.9816 9.375 10.0545 26.8917 9.39386 48.7499L12.5204 48.7503C13.1797 28.6181 29.7075 12.5 50 12.5C70.2925 12.5 86.8204 28.6181 87.4796 48.7503L90.6061 48.7501C89.9456 26.8918 72.0184 9.375 50 9.375ZM50 15.625C31.4336 15.625 16.3051 30.3443 15.6473 48.7501L18.7745 48.75C19.4307 32.0706 33.1597 18.75 50 18.75C66.8403 18.75 80.5693 32.0706 81.2255 48.75L84.3527 48.7501C83.6949 30.3443 68.5664 15.625 50 15.625Z" fill="black"/>
<path d="M7.26586 177.729C7.87135 177.729 8.49091 177.651 9.12457 177.496C9.75822 177.342 10.3531 177.116 10.9093 176.821C11.4656 176.525 11.9654 176.162 12.409 175.733C12.8525 175.303 13.194 174.807 13.4334 174.244L11.0466 172.871C10.8777 173.279 10.6524 173.628 10.3708 173.916C10.0891 174.205 9.78286 174.441 9.45195 174.624C9.12105 174.807 8.77254 174.941 8.40643 175.025C8.04032 175.11 7.6883 175.152 7.35035 175.152C6.70262 175.152 6.10769 175.011 5.56557 174.729C5.02344 174.448 4.55876 174.075 4.17153 173.61C3.7843 173.145 3.48508 172.607 3.27386 171.994C3.06264 171.382 2.95703 170.744 2.95703 170.083C2.95703 169.491 3.04856 168.896 3.23162 168.298C3.41467 167.699 3.68574 167.164 4.0448 166.693C4.40387 166.221 4.85447 165.837 5.3966 165.542C5.93872 165.246 6.57588 165.098 7.3081 165.098C7.64605 165.098 7.99104 165.137 8.34307 165.214C8.6951 165.292 9.03304 165.415 9.35691 165.584C9.68077 165.753 9.98352 165.982 10.2651 166.27C10.5468 166.559 10.7861 166.914 10.9833 167.337L13.2222 165.795C12.7293 164.823 11.9795 164.035 10.9727 163.429C9.96592 162.824 8.77254 162.521 7.39259 162.521C6.22385 162.521 5.18185 162.739 4.26658 163.176C3.35131 163.612 2.57685 164.183 1.9432 164.887C1.30955 165.591 0.827266 166.39 0.496359 167.284C0.165453 168.178 0 169.083 0 169.998C0 170.956 0.179533 171.896 0.538602 172.818C0.897671 173.74 1.39755 174.564 2.03824 175.289C2.67893 176.014 3.44283 176.602 4.32994 177.053C5.21705 177.503 6.1957 177.729 7.26586 177.729ZM23.2823 177.602V162.606H20.3675V177.602H23.2823ZM37.7991 177.602V165.161H42.5937V162.606H30.1108V165.161H34.9055V177.602H37.7991ZM52.3371 177.602V172.575H55.2096L58.2722 177.602H61.5461L58.1244 171.963C58.9552 171.61 59.6135 171.037 60.0993 170.241C60.5851 169.446 60.828 168.562 60.828 167.59C60.828 166.985 60.7083 166.383 60.4689 165.784C60.2295 165.186 59.8986 164.651 59.4762 164.179C59.0538 163.707 58.5504 163.327 57.966 163.039C57.3816 162.75 56.7444 162.606 56.0545 162.606H49.4223V177.602H52.3371ZM55.9911 170.019H52.3371V165.161H55.8644C56.1178 165.161 56.3678 165.221 56.6142 165.341C56.8606 165.461 57.0789 165.63 57.269 165.848C57.4591 166.066 57.6104 166.323 57.7231 166.619C57.8357 166.914 57.8921 167.238 57.8921 167.59C57.8921 167.928 57.8428 168.245 57.7442 168.541C57.6456 168.837 57.5119 169.093 57.3429 169.312C57.1739 169.53 56.9733 169.702 56.7409 169.829C56.5086 169.956 56.2586 170.019 55.9911 170.019ZM74.7956 177.708C75.9503 177.708 76.943 177.51 77.7738 177.116C78.6046 176.722 79.284 176.187 79.812 175.511C80.3401 174.835 80.7273 174.047 80.9737 173.145C81.2201 172.244 81.3433 171.28 81.3433 170.252V162.606H78.4497V170.252C78.4497 170.871 78.3898 171.473 78.2701 172.058C78.1504 172.642 77.9463 173.159 77.6576 173.61C77.3689 174.061 76.9888 174.427 76.517 174.708C76.0453 174.99 75.4645 175.131 74.7745 175.131C74.0986 175.131 73.5283 174.993 73.0636 174.719C72.599 174.444 72.2223 174.082 71.9336 173.631C71.645 173.181 71.4408 172.663 71.3211 172.079C71.2014 171.494 71.1416 170.885 71.1416 170.252V162.606H68.2268V170.252C68.2268 171.223 68.3429 172.16 68.5753 173.061C68.8076 173.962 69.1843 174.754 69.7053 175.437C70.2263 176.12 70.9057 176.669 71.7435 177.085C72.5814 177.5 73.5987 177.708 74.7956 177.708ZM94.445 177.771C95.1772 177.771 95.8778 177.69 96.5466 177.528C97.2155 177.366 97.8069 177.109 98.3208 176.757C98.8348 176.405 99.2431 175.944 99.5459 175.374C99.8486 174.803 100 174.117 100 173.314C100 172.624 99.8874 172.043 99.6621 171.572C99.4368 171.1 99.1164 170.695 98.701 170.357C98.2856 170.019 97.7787 169.738 97.1803 169.512C96.5818 169.287 95.9165 169.076 95.1842 168.879C94.621 168.738 94.1247 168.604 93.6952 168.477C93.2657 168.351 92.9102 168.21 92.6285 168.055C92.3469 167.9 92.1322 167.721 91.9843 167.516C91.8365 167.312 91.7625 167.055 91.7625 166.745C91.7625 166.21 91.9597 165.795 92.354 165.499C92.7482 165.204 93.3467 165.056 94.1493 165.056C94.5999 165.056 95.0434 165.112 95.48 165.225C95.9165 165.337 96.3213 165.475 96.6945 165.637C97.0676 165.799 97.3844 165.964 97.6449 166.133C97.9054 166.302 98.085 166.436 98.1835 166.534L99.472 164.169C98.8101 163.718 98.0357 163.327 97.1486 162.996C96.2615 162.665 95.2899 162.5 94.2338 162.5C93.4734 162.5 92.7623 162.602 92.1005 162.806C91.4387 163.01 90.8578 163.31 90.358 163.704C89.8581 164.098 89.4673 164.591 89.1857 165.182C88.9041 165.774 88.7633 166.45 88.7633 167.21C88.7633 167.787 88.8513 168.284 89.0273 168.699C89.2033 169.115 89.4673 169.481 89.8194 169.798C90.1714 170.114 90.6114 170.389 91.1395 170.621C91.6675 170.854 92.2906 171.068 93.0087 171.266C93.6001 171.434 94.1352 171.589 94.614 171.73C95.0927 171.871 95.5011 172.026 95.839 172.195C96.177 172.364 96.4375 172.561 96.6205 172.786C96.8036 173.012 96.8951 173.286 96.8951 173.61C96.8951 174.638 96.0925 175.152 94.4872 175.152C93.9099 175.152 93.3467 175.081 92.7975 174.941C92.2483 174.8 91.7485 174.627 91.2979 174.423C90.8473 174.219 90.4565 174.015 90.1256 173.811C89.7947 173.606 89.5659 173.441 89.4392 173.314L88.1507 175.828C89.0238 176.447 90.0094 176.926 91.1078 177.264C92.2061 177.602 93.3185 177.771 94.445 177.771Z" fill="black"/>
</svg>
